# xmcd
#
# Track frame offsets: 
#        150
#        11713
#        25579
#        38770
#        56881
#        67900
#        78468
#        89679
#        106105
#        124176
#        134415
#        146159
#        155243
#        169120
#        182301
#        194118
#
# Disc length: 2731 seconds
#
# Revision: 0
# Processed by: cddbd v1.5.2PL0 Copyright (c) Steve Scherf et al.
# Submitted via: ExactAudioCopy v0.99pb4
#
DISCID=e10aa910
DTITLE=Wheels Fargo and The Nightingale - Songs Of Calico (2011)
DYEAR=2011
DGENRE=Country
TTITLE0=Ain't Gonna Work Tomorrow
TTITLE1=House Of The Rising Sun
TTITLE2=Victorian Lady
TTITLE3=Night Train To Memphis
TTITLE4=Down Down Down
TTITLE5=Foggy Mountain Breakdown
TTITLE6=Cotton Fields
TTITLE7=Foot Prints In The Snow
TTITLE8=Rocky Top
TTITLE9=Crazy Arms
TTITLE10=Calico
TTITLE11=The Auctioneer
TTITLE12=Molly And Tenbrooks
TTITLE13=T For Texas
TTITLE14=Little Maggie
TTITLE15=I Hate My Neighbor
EXTD=
EXTT0=
EXTT1=
EXTT2=
EXTT3=
EXTT4=
EXTT5=
EXTT6=
EXTT7=
EXTT8=
EXTT9=
EXTT10=
EXTT11=
EXTT12=
EXTT13=
EXTT14=
EXTT15=
PLAYORDER=
